<svg width="64" height="64" viewBox="0 0 64 64" fill="none" xmlns="http://www.w3.org/2000/svg">
<g clip-path="url(#clip0_1067_251)">
<path d="M32.0561 7.50001C32.6108 5.35178 33.8641 3.44901 35.6188 2.09123C37.3735 0.733457 39.5299 -0.00222258 41.7486 5.04404e-06H41.9986C42.529 5.04404e-06 43.0377 0.210719 43.4128 0.585792C43.7879 0.960864 43.9986 1.46957 43.9986 2.00001C43.9986 2.53044 43.7879 3.03915 43.4128 3.41422C43.0377 3.78929 42.529 4.00001 41.9986 4.00001H41.7486C40.4183 3.99989 39.1258 4.44186 38.0741 5.25643C37.0223 6.071 36.2712 7.21198 35.9386 8.5C35.806 9.01386 35.4747 9.45399 35.0176 9.72358C34.5605 9.99316 34.015 10.0701 33.5011 9.9375C32.9872 9.8049 32.5471 9.47359 32.2775 9.01647C32.0079 8.55935 31.931 8.01386 32.0636 7.50001H32.0561ZM55.8236 42.3975C55.6736 42.0547 55.4312 41.7604 55.1236 41.5475C50.8811 38.6325 49.9986 33.66 49.9986 30C49.9986 25.5825 53.3661 21.735 55.3736 19.8325C55.5711 19.6456 55.7283 19.4204 55.8358 19.1707C55.9433 18.9209 55.9987 18.6519 55.9987 18.38C55.9987 18.1081 55.9433 17.8391 55.8358 17.5893C55.7283 17.3396 55.5711 17.1144 55.3736 16.9275C52.2036 13.935 46.9536 12 41.9986 12C38.4392 12.0032 34.9602 13.0582 31.9986 15.0325C28.5439 12.7159 24.3899 11.6755 20.2512 12.0903C16.1124 12.505 12.2474 14.349 9.32111 17.305C7.5717 19.091 6.19906 21.2103 5.28474 23.5372C4.37041 25.864 3.93304 28.3508 3.99861 30.85C4.09675 35.0684 5.03474 39.2248 6.75775 43.0765C8.48077 46.9282 10.9542 50.3978 14.0336 53.2825C15.8881 55.0347 18.3448 56.0075 20.8961 56H42.8161C44.1801 56.0026 45.53 55.725 46.7823 55.1844C48.0346 54.6439 49.1625 53.8519 50.0961 52.8575C51.8256 50.9962 53.3216 48.931 54.5511 46.7075C56.3061 43.5 56.0811 43 55.8236 42.3975Z" fill="black"/>
</g>
<defs>
<clipPath id="clip0_1067_251">
<rect width="64" height="64" fill="white"/>
</clipPath>
</defs>
</svg>
