<svg width="48" height="48" viewBox="0 0 48 48" fill="none" xmlns="http://www.w3.org/2000/svg">
<path d="M24 32C21.8 32 19.9167 31.2167 18.35 29.65C16.7833 28.0833 16 26.2 16 24C16 21.8 16.7833 19.9167 18.35 18.35C19.9167 16.7833 21.8 16 24 16C26.2 16 28.0833 16.7833 29.65 18.35C31.2167 19.9167 32 21.8 32 24C32 26.2 31.2167 28.0833 29.65 29.65C28.0833 31.2167 26.2 32 24 32ZM24 28C25.1 28 26.0417 27.6083 26.825 26.825C27.6083 26.0417 28 25.1 28 24C28 22.9 27.6083 21.9583 26.825 21.175C26.0417 20.3917 25.1 20 24 20C22.9 20 21.9583 20.3917 21.175 21.175C20.3917 21.9583 20 22.9 20 24C20 25.1 20.3917 26.0417 21.175 26.825C21.9583 27.6083 22.9 28 24 28ZM10 42C8.9 42 7.95833 41.6083 7.175 40.825C6.39167 40.0417 6 39.1 6 38V30H10V38H18V42H10ZM30 42V38H38V30H42V38C42 39.1 41.6083 40.0417 40.825 40.825C40.0417 41.6083 39.1 42 38 42H30ZM6 18V10C6 8.9 6.39167 7.95833 7.175 7.175C7.95833 6.39167 8.9 6 10 6H18V10H10V18H6ZM38 18V10H30V6H38C39.1 6 40.0417 6.39167 40.825 7.175C41.6083 7.95833 42 8.9 42 10V18H38Z" fill="#3A4507"/>
</svg>
