<svg width="66" height="66" viewBox="0 0 66 66" fill="none" xmlns="http://www.w3.org/2000/svg">
<path d="M17.0488 4.9707C23.6484 1.21497 31.3618 -0.0914592 38.8301 1.28125C46.2955 2.65354 53.0379 6.61536 57.8701 12.4688L58.0537 12.6973C58.2253 12.9346 58.3603 13.197 58.4541 13.4756C58.5792 13.847 58.6278 14.2401 58.5977 14.6309C58.5675 15.0216 58.4589 15.4022 58.2783 15.75C58.0977 16.0978 57.8491 16.4057 57.5469 16.6553C57.2446 16.9048 56.8953 17.0917 56.5195 17.2031C56.1439 17.3145 55.7496 17.349 55.3604 17.3047C54.9709 17.2603 54.594 17.1375 54.2529 16.9443C53.912 16.7513 53.6133 16.4917 53.375 16.1807V16.1797C49.4902 11.4727 44.0946 8.2568 38.1064 7.07715C32.1151 5.89691 25.8993 6.82837 20.5176 9.71387C15.1361 12.5993 10.9207 17.2602 8.58789 22.9033C6.25514 28.5465 5.94928 34.8238 7.72266 40.667C9.49618 46.5103 13.2395 51.5594 18.3154 54.9541C23.3914 58.3487 29.4869 59.8797 35.5645 59.2871C41.642 58.6945 47.3268 56.0143 51.6514 51.7031C55.9105 47.4571 58.5898 41.8868 59.2539 35.915H33C32.2265 35.915 31.4845 35.6075 30.9375 35.0605C30.3906 34.5136 30.083 33.7715 30.083 32.998C30.0831 32.2246 30.3906 31.4825 30.9375 30.9355C31.4845 30.3887 32.2265 30.082 33 30.082H62.333C63.1064 30.082 63.8486 30.3888 64.3955 30.9355C64.9424 31.4825 65.2499 32.2246 65.25 32.998L65.2422 33.71C65.0807 41.05 62.4184 48.1235 57.6846 53.7539C52.7977 59.5661 46.0161 63.4681 38.5352 64.7715C31.0544 66.0748 23.3535 64.6968 16.7891 60.8799C10.2246 57.0629 5.21715 51.0515 2.64941 43.9053C0.0817192 36.759 0.118006 28.9356 2.75195 21.8135C5.38598 14.6913 10.4491 8.72658 17.0488 4.9707Z" fill="black" stroke="black" stroke-width="0.5"/>
</svg>
