<svg width="48" height="48" viewBox="0 0 48 48" fill="none" xmlns="http://www.w3.org/2000/svg">
<path d="M22 42V14H26V42H22ZM14 36V20H18V36H14ZM30 36V20H34V36H30ZM6 30V26H10V30H6ZM38 30V26H42V30H38ZM4 20V16H6.35C7.75 16 9.05833 15.65 10.275 14.95C11.4917 14.25 12.4667 13.3 13.2 12.1C14.3333 10.2 15.8583 8.70833 17.775 7.625C19.6917 6.54167 21.7667 6 24 6C26.2333 6 28.3083 6.54167 30.225 7.625C32.1417 8.70833 33.6667 10.2 34.8 12.1C35.5333 13.3 36.5083 14.25 37.725 14.95C38.9417 15.65 40.25 16 41.65 16H44V20H41.7C39.6 20 37.625 19.4833 35.775 18.45C33.925 17.4167 32.4667 16 31.4 14.2C30.6333 12.9 29.5917 11.875 28.275 11.125C26.9583 10.375 25.5333 10 24 10C22.5 10 21.0917 10.375 19.775 11.125C18.4583 11.875 17.4167 12.9 16.65 14.2C15.5833 16 14.125 17.4167 12.275 18.45C10.425 19.4833 8.45 20 6.35 20H4Z" fill="#E3E3E3"/>
</svg>
